PathFileType	3	(X/Y/Z)	F:\ViconData\AntennenMessung\Messung1\Session1\ID07.trc
DataRate	CameraRate	NumFrames	NumMarkers	Units	OrigDataRate	OrigDataStartFrame	OrigNumFrames
120.0	120.0	5	70	mm	120.0	643	856	
Frame#	Time	Ashort			Along			Atop			A4			Bshort			Blong			Btop			B4			Cshort			Clong			Ctop			C4			Dshort			Dlong			Dtop			D4			Eshort			Elong			Etop			E4			Fshort			Flong			Ftop			F4			Gshort			Glong			Gtop			G4			Hshort			Hlong			Htop			H4			I1			I2			I3			I4			I5			WandAshort			WandAlong			WandAtop			WandA4			WandA15			WandBshort			WandB4			WandB5			WandBtop			WandBlong			WandCshort			WandClong			WandCtop			WandC4			WandC5			Acenter			Aantenna			Bcenter			Bantenna			Ccenter			Cantenna			Dcenter			Dantenna			Ecenter			Eantenna			Fcenter			Fantenna			Gcenter			Gantenna			Hcenter			Hantenna			Icenter			Iantenna			
		X1	Y1	Z1	X2	Y2	Z2	X3	Y3	Z3	X4	Y4	Z4	X5	Y5	Z5	X6	Y6	Z6	X7	Y7	Z7	X8	Y8	Z8	X9	Y9	Z9	X10	Y10	Z10	X11	Y11	Z11	X12	Y12	Z12	X13	Y13	Z13	X14	Y14	Z14	X15	Y15	Z15	X16	Y16	Z16	X17	Y17	Z17	X18	Y18	Z18	X19	Y19	Z19	X20	Y20	Z20	X21	Y21	Z21	X22	Y22	Z22	X23	Y23	Z23	X24	Y24	Z24	X25	Y25	Z25	X26	Y26	Z26	X27	Y27	Z27	X28	Y28	Z28	X29	Y29	Z29	X30	Y30	Z30	X31	Y31	Z31	X32	Y32	Z32	X33	Y33	Z33	X34	Y34	Z34	X35	Y35	Z35	X36	Y36	Z36	X37	Y37	Z37	X38	Y38	Z38	X39	Y39	Z39	X40	Y40	Z40	X41	Y41	Z41	X42	Y42	Z42	X43	Y43	Z43	X44	Y44	Z44	X45	Y45	Z45	X46	Y46	Z46	X47	Y47	Z47	X48	Y48	Z48	X49	Y49	Z49	X50	Y50	Z50	X51	Y51	Z51	X52	Y52	Z52	X53	Y53	Z53	X54	Y54	Z54	X55	Y55	Z55	X56	Y56	Z56	X57	Y57	Z57	X58	Y58	Z58	X59	Y59	Z59	X60	Y60	Z60	X61	Y61	Z61	X62	Y62	Z62	X63	Y63	Z63	X64	Y64	Z64	X65	Y65	Z65	X66	Y66	Z66	X67	Y67	Z67	X68	Y68	Z68	X69	Y69	Z69	X70	Y70	Z70	
643	5.35	-1038.2412	214.5304	-1644.1106	-1109.3278	203.87695	-1599.505	-1063.5117	172.9863	-1625.9102	-1054.1713	262.22583	-1634.9128	-1352.7832	235.19122	1003.7856	-1281.4088	227.37024	1052.213	-1322.9215	194.1031	1020.7902	-1284.3588	287.96445	1052.5989	813.9035	187.62344	1209.4226	892.28754	178.2005	1179.1544	844.54895	145.33832	1198.3539	861.08881	292.34222	1167.2645	1115.9089	209.9825	-1401.8191	1056.3372	194.13046	-1460.1611	1095.1956	162.33789	-1423.7916	1069.7786	238.88641	-1425.9319	-1204.5327	1686.0061	-1563.311	-1129.1482	1688.356	-1606.3085	-1173.1448	1724.4879	-1581.9871	-1133.5171	1581.1145	-1603.5908	-1239.6221	1699.0161	1119.3762	-1309.4091	1698.7839	1071.9156	-1270.4945	1736.2448	1096.8669	-1245.6597	1592.8025	1110.6489	988.81531	1664.1962	1162.2432	957.34119	1700.5054	1183.8251	921.81903	1662.3759	1214.8456	939.86548	1659.4175	1159.8347	999.25775	1668.4619	-1579.3735	1058.8875	1670.0005	-1518.7336	1025.1019	1708.0745	-1551.1616	1059.3777	1672.2133	-1585.5193	354.74634	169.15611	20.127256	349.2265	177.18193	103.64986	352.44171	132.42232	61.598244	385.11261	173.66107	57.943661	304.54544	172.45573	53.698029																																														-1068.5457	209.98878	-1625.0948	-1073.8016	248.62361	-1624.2439	-1321.6078	231.77512	1024.938	-1320.2567	270.51758	1029.2035	848.28308	183.49048	1196.1467	852.07574	222.24083	1193.905	1088.8586	202.78442	-1428.3109	1082.8585	241.08177	-1432.59	-1171.9309	1687.0222	-1581.9062	-1170.6678	1648.0428	-1581.8221	-1271.1133	1698.9111	1097.9596	-1271.7594	1659.9332	1099.1003	952.76923	1705.7794	1186.9598	972.83295	1733.9161	1168.8829	1026.5602	1669.1663	-1551.6084	1028.0208	1630.1962	-1552.056	352.26257	172.76744	57.709587	352.0903	211.58717	53.96796
644	5.3583333	-1038.2617	214.63948	-1644.1727	-1109.325	203.97777	-1599.54	-1063.5146	172.94458	-1625.9045	-1054.1598	262.18686	-1634.8772	-1352.7568	235.30148	1003.7899	-1281.3749	227.39253	1052.1759	-1322.8658	194.19194	1020.7518	-1284.3508	287.98904	1052.6067	813.90607	187.46411	1209.4266	892.44055	178.20526	1179.1246	844.51257	145.50063	1198.2084	861.29382	292.25513	1167.8744	1115.8918	209.96732	-1401.8245	1056.3096	194.04034	-1460.1304	1095.1636	162.38997	-1423.7867	1069.7953	238.86212	-1425.972	-1204.5426	1686.0225	-1563.3113	-1129.1527	1688.3357	-1606.2842	-1173.1493	1724.4828	-1581.9985	-1133.5139	1581.1149	-1603.5809	-1239.5929	1698.9974	1119.3662	-1309.4276	1698.8195	1071.9275	-1270.4719	1736.2122	1096.8562	-1245.6777	1592.775	1110.6429	988.87646	1664.2485	1162.2544	957.26532	1700.5316	1183.7854	922.0155	1662.3015	1214.7885	939.83258	1659.3754	1159.9117	999.24591	1668.4581	-1579.3978	1059.0281	1670.1897	-1518.709	1025.1101	1708.0668	-1551.1665	1059.3751	1672.2019	-1585.521	354.767	169.17485	20.102167	349.20959	177.20491	103.62833	352.39206	132.47696	61.54081	385.09726	173.56285	57.882832	304.92813	171.88863	53.908283																																														-1068.5952	210.08849	-1625.1211	-1073.8795	248.72026	-1624.3062	-1321.5399	231.84271	1024.9502	-1320.1759	270.57877	1029.2694	848.20526	183.42039	1196.1924	851.9801	222.18254	1194.1318	1088.8163	202.72975	-1428.3198	1082.7915	241.02055	-1432.6228	-1171.9407	1687.0228	-1581.8945	-1170.683	1648.0432	-1581.7864	-1271.1199	1698.9169	1097.9498	-1271.797	1659.9397	1099.093	952.77588	1705.6844	1186.8433	972.74463	1733.8473	1168.7021	1026.651	1669.2518	-1551.5769	1028.198	1630.2847	-1551.9889	352.26825	172.78532	57.657391	352.14905	211.60539	53.917366
645	5.3666667	-1038.2548	214.59567	-1644.15	-1109.3274	203.85088	-1599.4979	-1063.5444	172.93199	-1625.9089	-1054.1423	262.21671	-1634.9026	-1352.7286	235.29996	1003.7931	-1281.3875	227.32063	1052.2209	-1322.8765	194.1158	1020.8066	-1284.4111	287.9649	1052.6487	813.94202	187.55045	1209.3958	892.20868	178.16124	1179.1929	844.54852	145.41277	1198.3142	861.17682	292.38568	1167.4568	1115.8955	209.99033	-1401.8251	1056.3153	194.0876	-1460.1172	1095.1453	162.35773	-1423.8018	1069.769	238.89409	-1425.9941	-1204.5334	1686.0156	-1563.3142	-1129.147	1688.3453	-1606.2841	-1173.1438	1724.4799	-1581.994	-1133.5312	1581.1279	-1603.6128	-1239.6306	1699.0272	1119.3804	-1309.4132	1698.8007	1071.9124	-1270.4756	1736.235	1096.8641	-1244.9707	1593.6915	1107.0574	988.84924	1664.2167	1162.2682	957.32892	1700.4733	1183.8008	921.95056	1662.2593	1214.7755	939.81311	1659.4088	1159.8499	999.26489	1668.4548	-1579.3864	1058.885	1670.0082	-1518.7228	1025.1106	1708.0613	-1551.1587	1059.3706	1672.202	-1585.5181	354.75751	169.15318	20.106596	349.19937	177.16455	103.66646	352.43579	132.38367	61.588551	385.11282	173.55179	57.891972	304.53714	172.42369	53.720737																																														-1068.6224	210.00464	-1625.071	-1073.9141	248.63414	-1624.1979	-1321.5011	231.80725	1024.991	-1320.0878	270.54364	1029.2913	848.27325	183.4319	1196.1475	852.06989	222.18378	1193.939	1088.7985	202.75774	-1428.3363	1082.7826	241.05052	-1432.6344	-1171.931	1687.0231	-1581.8972	-1170.6689	1648.0436	-1581.7966	-1271.1064	1698.925	1097.9695	-1271.7656	1659.9476	1099.1243	952.81885	1705.6609	1186.8818	972.84259	1733.8149	1168.7875	1026.5731	1669.1664	-1551.6	1028.0383	1630.1963	-1552.0424	352.25653	172.75803	57.705704	352.0842	211.57854	53.972294
646	5.375	-1038.2532	214.57634	-1644.1184	-1109.3501	203.81793	-1599.4761	-1063.5057	172.95265	-1625.8898	-1054.1504	262.22348	-1634.9037	-1352.8546	235.01395	1003.8392	-1281.3472	227.37387	1052.2323	-1322.8685	194.1725	1020.7142	-1284.3787	287.91733	1052.6191	814.00897	187.47652	1209.4166	892.24573	178.25557	1179.1012	844.49506	145.46831	1198.2819	861.00317	292.43961	1167.2538	1115.894	209.98715	-1401.8236	1056.2908	194.09712	-1460.16	1095.2502	162.44667	-1423.7955	1069.7904	238.8351	-1425.9546	-1204.5231	1686.001	-1563.3069	-1129.1531	1688.3571	-1606.2872	-1173.1449	1724.4847	-1582.0077	-1133.5265	1581.1149	-1603.5813	-1239.6346	1699.0614	1119.3922	-1309.3158	1698.6302	1071.8496	-1270.5139	1736.2792	1096.8792	-1244.9961	1593.6027	1107.0798	988.90265	1664.275	1162.2705	957.36389	1700.4812	1183.8213	921.96368	1662.2954	1214.8446	939.85651	1659.3776	1159.8346	999.26422	1668.4773	-1579.4005	1058.8888	1670.0151	-1518.725	1025.1125	1708.0675	-1551.1549	1059.3677	1672.2053	-1585.5176	354.74057	169.15411	20.106117	349.20786	177.18939	103.66743	352.4364	132.39987	61.649452	385.11145	173.57739	57.874203	304.92773	171.91637	53.917797																																														-1068.5934	209.98524	-1625.0676	-1073.9001	248.61299	-1624.21	-1321.7061	231.68594	1024.9191	-1320.5057	270.42487	1029.2611	848.15881	183.45161	1196.1842	851.89771	222.21291	1194.0435	1088.8746	202.78386	-1428.2687	1082.8221	241.0766	-1432.5151	-1171.9137	1687.0203	-1581.9025	-1170.6329	1648.0415	-1581.7933	-1271.0284	1698.8671	1097.9725	-1271.5645	1659.8873	1099.1118	952.78101	1705.7419	1186.9528	972.77002	1733.9227	1168.8615	1026.5759	1669.1816	-1551.6074	1028.0426	1630.2118	-1552.0608	352.24777	172.77438	57.754532	352.06647	211.59375	54.00964
647	5.3833333	-1038.2448	214.58699	-1644.14	-1109.3424	203.86295	-1599.5035	-1063.4611	172.94572	-1625.9381	-1054.1517	262.23578	-1634.9066	-1352.8069	235.05669	1003.8795	-1281.358	227.44806	1052.1982	-1322.8831	194.15007	1020.7563	-1284.2928	287.93982	1052.6442	813.97522	187.51321	1209.4028	892.44946	178.27194	1179.0919	844.53271	145.29857	1198.3224	861.19049	292.28763	1167.4124	1115.8938	209.97958	-1401.817	1056.3125	194.03651	-1460.1265	1095.1691	162.30112	-1423.7245	1069.7565	238.87987	-1425.9585	-1204.5399	1686.0145	-1563.3038	-1129.153	1688.3571	-1606.3114	-1173.1554	1724.5024	-1582.0084	-1133.5076	1581.0869	-1603.5566	-1239.6006	1699.0051	1119.3676	-1309.2828	1698.5756	1071.8234	-1270.5137	1736.2855	1096.8748	-1244.9631	1593.6078	1106.9843	988.86462	1664.2505	1162.2476	957.33453	1700.5195	1183.7781	921.94739	1662.2734	1214.8358	939.80487	1659.3984	1159.8566	999.25043	1668.4565	-1579.3762	1058.8871	1670.0045	-1518.7217	1025.1049	1708.0565	-1551.1525	1059.3835	1672.2268	-1585.5334	354.74982	169.17096	20.106827	349.21475	177.17473	103.66499	352.41962	132.42545	61.601631	385.11737	173.56519	57.876842	304.88959	171.94521	53.897049																																														-1068.5394	210.01746	-1625.1202	-1073.8312	248.64738	-1624.2682	-1321.6949	231.74356	1024.9196	-1320.4708	270.48749	1029.2101	848.2027	183.48251	1196.1823	851.9281	222.24333	1194.0098	1088.8298	202.73766	-1428.3032	1082.827	241.02821	-1432.6389	-1171.9325	1687.0276	-1581.906	-1170.6605	1648.0485	-1581.7994	-1271.0082	1698.8114	1097.9381	-1271.5227	1659.8306	1099.0443	952.81738	1705.7156	1186.8624	972.82001	1733.8644	1168.7369	1026.5649	1669.1654	-1551.5955	1028.028	1630.1954	-1552.0394	352.25784	172.77437	57.726013	352.10223	211.5954	53.997166
